<svg xmlns="http://www.w3.org/2000/svg"  viewBox="0 0 100 100" width="100px" height="100px"><path fill="#c7ede6" d="M87.215,56.71C88.35,54.555,89,52.105,89,49.5c0-6.621-4.159-12.257-10.001-14.478 C78.999,35.015,79,35.008,79,35c0-11.598-9.402-21-21-21c-9.784,0-17.981,6.701-20.313,15.757C36.211,29.272,34.638,29,33,29 c-7.692,0-14.023,5.793-14.89,13.252C12.906,43.353,9,47.969,9,53.5C9,59.851,14.149,65,20.5,65c0.177,0,0.352-0.012,0.526-0.022 C21.022,65.153,21,65.324,21,65.5C21,76.822,30.178,86,41.5,86c6.437,0,12.175-2.972,15.934-7.614C59.612,80.611,62.64,82,66,82 c4.65,0,8.674-2.65,10.666-6.518C77.718,75.817,78.837,76,80,76c6.075,0,11-4.925,11-11C91,61.689,89.53,58.727,87.215,56.71z"/><path fill="#fff" d="M15.405,51H5.5C5.224,51,5,50.776,5,50.5S5.224,50,5.5,50h9.905c0.276,0,0.5,0.224,0.5,0.5 S15.682,51,15.405,51z"/><path fill="#fff" d="M18.5,51h-1c-0.276,0-0.5-0.224-0.5-0.5s0.224-0.5,0.5-0.5h1c0.276,0,0.5,0.224,0.5,0.5 S18.777,51,18.5,51z"/><path fill="#fff" d="M23.491,53H14.5c-0.276,0-0.5-0.224-0.5-0.5s0.224-0.5,0.5-0.5h8.991c0.276,0,0.5,0.224,0.5,0.5 S23.767,53,23.491,53z"/><path fill="#fff" d="M12.5,53h-1c-0.276,0-0.5-0.224-0.5-0.5s0.224-0.5,0.5-0.5h1c0.276,0,0.5,0.224,0.5,0.5 S12.777,53,12.5,53z"/><path fill="#fff" d="M9.5,53h-2C7.224,53,7,52.776,7,52.5S7.224,52,7.5,52h2c0.276,0,0.5,0.224,0.5,0.5S9.777,53,9.5,53 z"/><path fill="#fff" d="M15.5,55h-2c-0.276,0-0.5-0.224-0.5-0.5s0.224-0.5,0.5-0.5h2c0.276,0,0.5,0.224,0.5,0.5 S15.776,55,15.5,55z"/><path fill="#fff" d="M18.5,46c-0.177,0-0.823,0-1,0c-0.276,0-0.5,0.224-0.5,0.5c0,0.276,0.224,0.5,0.5,0.5 c0.177,0,0.823,0,1,0c0.276,0,0.5-0.224,0.5-0.5C19,46.224,18.776,46,18.5,46z"/><path fill="#fff" d="M18.5,48c-0.177,0-4.823,0-5,0c-0.276,0-0.5,0.224-0.5,0.5c0,0.276,0.224,0.5,0.5,0.5 c0.177,0,4.823,0,5,0c0.276,0,0.5-0.224,0.5-0.5C19,48.224,18.776,48,18.5,48z"/><path fill="#fff" d="M23.5,50c-0.177,0-2.823,0-3,0c-0.276,0-0.5,0.224-0.5,0.5c0,0.276,0.224,0.5,0.5,0.5 c0.177,0,2.823,0,3,0c0.276,0,0.5-0.224,0.5-0.5C24,50.224,23.776,50,23.5,50z"/><path fill="#fff" d="M85.5,46h-10c-0.276,0-0.5-0.224-0.5-0.5s0.224-0.5,0.5-0.5h10c0.276,0,0.5,0.224,0.5,0.5 S85.776,46,85.5,46z"/><path fill="#fff" d="M89.5,46h-2c-0.276,0-0.5-0.224-0.5-0.5s0.224-0.5,0.5-0.5h2c0.276,0,0.5,0.224,0.5,0.5 S89.776,46,89.5,46z"/><path fill="#fff" d="M94.5,48h-10c-0.276,0-0.5-0.224-0.5-0.5s0.224-0.5,0.5-0.5h10c0.276,0,0.5,0.224,0.5,0.5 S94.777,48,94.5,48z"/><path fill="#fff" d="M82.5,48h-1c-0.276,0-0.5-0.224-0.5-0.5s0.224-0.5,0.5-0.5h1c0.276,0,0.5,0.224,0.5,0.5 S82.776,48,82.5,48z"/><path fill="#fff" d="M79.375,48H77.5c-0.276,0-0.5-0.224-0.5-0.5s0.224-0.5,0.5-0.5h1.875c0.276,0,0.5,0.224,0.5,0.5 S79.651,48,79.375,48z"/><path fill="#fff" d="M88.5,44h-5c-0.276,0-0.5-0.224-0.5-0.5s0.224-0.5,0.5-0.5h5c0.276,0,0.5,0.224,0.5,0.5 S88.777,44,88.5,44z"/><path fill="#fff" d="M85.5,50h-2c-0.276,0-0.5-0.224-0.5-0.5s0.224-0.5,0.5-0.5h2c0.276,0,0.5,0.224,0.5,0.5 S85.776,50,85.5,50z"/><path fill="#fdfcef" d="M80.5,76.5c0,0,1.567,0,3.5,0s3.5-1.567,3.5-3.5c0-1.781-1.335-3.234-3.055-3.455 C84.473,69.366,84.5,69.187,84.5,69c0-1.933-1.567-3.5-3.5-3.5c-1.032,0-1.95,0.455-2.59,1.165 c-0.384-1.808-1.987-3.165-3.91-3.165c-2.209,0-4,1.791-4,4c0,0.191,0.03,0.374,0.056,0.558C70.128,67.714,69.592,67.5,69,67.5 c-1.228,0-2.245,0.887-2.455,2.055C66.366,69.527,66.187,69.5,66,69.5c-1.933,0-3.5,1.567-3.5,3.5s1.567,3.5,3.5,3.5s7.5,0,7.5,0 V77h7V76.5z"/><path fill="#472b29" d="M82.25,72C82.112,72,82,71.888,82,71.75c0-1.223,0.995-2.218,2.218-2.218 c0.034,0.009,0.737-0.001,1.244,0.136c0.133,0.036,0.212,0.173,0.176,0.306c-0.036,0.134-0.173,0.213-0.306,0.176 c-0.444-0.12-1.1-0.12-1.113-0.118c-0.948,0-1.719,0.771-1.719,1.718C82.5,71.888,82.388,72,82.25,72z"/><circle cx="75.5" cy="76.5" r=".5" fill="#472b29"/><path fill="#472b29" d="M84,77h-3.5c-0.276,0-0.5-0.224-0.5-0.5s0.224-0.5,0.5-0.5H84c1.654,0,3-1.346,3-3 c0-1.496-1.125-2.768-2.618-2.959c-0.134-0.018-0.255-0.088-0.336-0.196s-0.115-0.244-0.094-0.377C83.975,69.314,84,69.16,84,69 c0-1.654-1.346-3-3-3c-0.85,0-1.638,0.355-2.219,1c-0.125,0.139-0.321,0.198-0.5,0.148c-0.182-0.049-0.321-0.195-0.36-0.379 C77.58,65.165,76.141,64,74.5,64c-1.93,0-3.5,1.57-3.5,3.5c0,0.143,0.021,0.28,0.041,0.418c0.029,0.203-0.063,0.438-0.242,0.54 c-0.179,0.102-0.396,0.118-0.556-0.01C69.878,68.155,69.449,68,69,68c-0.966,0-1.792,0.691-1.963,1.644 c-0.048,0.267-0.296,0.446-0.569,0.405C66.314,70.025,66.16,70,66,70c-1.654,0-3,1.346-3,3s1.346,3,3,3h7.5 c0.276,0,0.5,0.224,0.5,0.5S73.776,77,73.5,77H66c-2.206,0-4-1.794-4-4s1.794-4,4-4c0.059,0,0.116,0.002,0.174,0.006 C66.588,67.82,67.711,67,69,67c0.349,0,0.689,0.061,1.011,0.18C70.176,64.847,72.126,63,74.5,63c1.831,0,3.466,1.127,4.153,2.774 C79.333,65.276,80.155,65,81,65c2.206,0,4,1.794,4,4c0,0.048-0.001,0.095-0.004,0.142C86.739,69.59,88,71.169,88,73 C88,75.206,86.206,77,84,77z"/><path fill="#472b29" d="M78.5,76c-0.159,0-0.841,0-1,0c-0.276,0-0.5,0.224-0.5,0.5c0,0.276,0.224,0.5,0.5,0.5 c0.159,0,0.841,0,1,0c0.276,0,0.5-0.224,0.5-0.5C79,76.224,78.776,76,78.5,76z"/><path fill="#6869ad" d="M66.3,71.3H35.7c-3.314,0-6-2.686-6-6V35.7c0-3.314,2.686-6,6-6h30.6c3.314,0,6,2.686,6,6v29.6 C72.3,68.614,69.614,71.3,66.3,71.3z"/><rect width="10" height="3.5" x="51" y="67.5" fill="#00a5a5"/><path fill="#3678ba" d="M72.3,62v3.3c0,3.31-2.69,6-6,6H61v-4h5.3c3.07,0,5.61-2.32,5.96-5.3H72.3z"/><rect width="10" height="3.5" x="41" y="67.5" fill="#ff991f" transform="rotate(-180 46 69.25)"/><path fill="#ea6075" d="M29.7,62v3.3c0,3.31,2.69,6,6,6H41v-4h-5.3c-3.07,0-5.61-2.32-5.96-5.3H29.7z"/><path fill="#472b29" d="M66.3,72H35.7c-3.694,0-6.7-3.006-6.7-6.7V35.7c0-3.694,3.006-6.7,6.7-6.7h30.6 c3.694,0,6.7,3.006,6.7,6.7v29.6C73,68.994,69.994,72,66.3,72z M35.7,30.4c-2.923,0-5.3,2.377-5.3,5.3v29.6 c0,2.922,2.377,5.3,5.3,5.3h30.6c2.923,0,5.3-2.377,5.3-5.3V35.7c0-2.922-2.377-5.3-5.3-5.3H35.7z"/><path fill="#472b29" d="M66.3,68H35.7c-3.694,0-6.7-3.006-6.7-6.7h1.4c0,2.922,2.377,5.3,5.3,5.3h30.6 c2.923,0,5.3-2.377,5.3-5.3H73C73,64.994,69.994,68,66.3,68z"/><path fill="#fdfcef" d="M50.475,60.507c-3.127,0-6.17-1.227-8.463-3.52c-4.68-4.68-4.68-12.295,0.001-16.975 c2.267-2.267,5.28-3.515,8.487-3.515s6.221,1.248,8.487,3.515c3.201,3.2,4.324,7.865,2.932,12.176 c-0.425,1.314-1.835,2.033-3.147,1.61c-1.313-0.424-2.035-1.833-1.61-3.147c0.812-2.515,0.157-5.237-1.709-7.103 c-1.322-1.323-3.081-2.051-4.952-2.051s-3.63,0.728-4.952,2.05c-2.73,2.73-2.73,7.174,0,9.904c1.867,1.867,4.589,2.524,7.104,1.709 c1.31-0.424,2.723,0.296,3.147,1.61c0.425,1.313-0.296,2.723-1.61,3.147C52.966,60.314,51.713,60.507,50.475,60.507z"/><path fill="#472b29" d="M50.475,61.007c-3.321,0-6.452-1.302-8.816-3.666c-2.357-2.358-3.656-5.498-3.656-8.841 s1.299-6.483,3.657-8.841c2.36-2.361,5.5-3.662,8.841-3.662s6.48,1.3,8.841,3.662c3.334,3.333,4.505,8.193,3.054,12.683 c-0.509,1.571-2.2,2.439-3.776,1.933c-0.763-0.247-1.384-0.775-1.749-1.488c-0.365-0.714-0.431-1.526-0.184-2.289 c0.754-2.335,0.146-4.862-1.587-6.596c-1.228-1.228-2.86-1.904-4.599-1.904c-1.737,0-3.371,0.676-4.599,1.904 C44.675,45.127,44,46.761,44,48.5s0.675,3.373,1.901,4.599c1.736,1.736,4.264,2.343,6.596,1.587 c0.761-0.246,1.572-0.182,2.287,0.184s1.244,0.986,1.49,1.749c0.247,0.762,0.182,1.575-0.184,2.289s-0.985,1.242-1.749,1.488 C53.085,60.801,51.784,61.007,50.475,61.007z M50.5,36.998c-3.073,0-5.962,1.196-8.134,3.369c-2.169,2.169-3.364,5.058-3.364,8.134 s1.194,5.965,3.363,8.134c2.175,2.175,5.055,3.373,8.109,3.373c1.205,0,2.402-0.189,3.561-0.563 c0.508-0.165,0.922-0.517,1.166-0.993c0.243-0.476,0.286-1.017,0.122-1.525s-0.518-0.922-0.994-1.166 c-0.476-0.243-1.019-0.287-1.523-0.123c-2.696,0.875-5.609,0.171-7.611-1.831C43.779,52.391,43,50.506,43,48.5 s0.779-3.891,2.194-5.306c1.417-1.417,3.301-2.197,5.306-2.197s3.89,0.78,5.306,2.197c2,2,2.701,4.916,1.831,7.61 c-0.164,0.508-0.12,1.05,0.123,1.526s0.657,0.828,1.165,0.992c1.052,0.338,2.18-0.241,2.519-1.289 c1.334-4.131,0.258-8.602-2.81-11.668C56.462,38.194,53.573,36.998,50.5,36.998z"/><circle cx="60.5" cy="58.5" r="3" fill="#fdfcef"/><path fill="#472b29" d="M60.5,62c-1.93,0-3.5-1.57-3.5-3.5s1.57-3.5,3.5-3.5s3.5,1.57,3.5,3.5S62.43,62,60.5,62z M60.5,56 c-1.379,0-2.5,1.122-2.5,2.5s1.121,2.5,2.5,2.5s2.5-1.122,2.5-2.5S61.879,56,60.5,56z"/><rect width="1" height="4" x="50.5" y="67" fill="#472b29"/><rect width="1" height="4" x="40.5" y="67" fill="#472b29"/><rect width="1" height="4" x="60.5" y="67" fill="#472b29"/><g><path fill="#fdfcef" d="M43.875,32.5c0,0,3.64,0,6.125,0s4.5-2.015,4.5-4.5c0-2.333-1.782-4.229-4.055-4.455 C50.467,23.364,50.5,23.187,50.5,23c0-2.485-2.015-4.5-4.5-4.5c-1.438,0-2.703,0.686-3.527,1.736 C42.333,17.6,40.171,15.5,37.5,15.5c-2.761,0-5,2.239-5,5c0,0.446,0.077,0.87,0.187,1.282C32.045,21.005,31.086,20.5,30,20.5 c-1.781,0-3.234,1.335-3.455,3.055C26.364,23.533,26.187,23.5,26,23.5c-2.485,0-4.5,2.015-4.5,4.5s2.015,4.5,4.5,4.5s9.5,0,9.5,0 h5.375V33h3V32.5z"/><path fill="#472b29" d="M37.5,15c-3.033,0-5.5,2.467-5.5,5.5c0,0.016,0,0.031,0,0.047C31.398,20.192,30.71,20,30,20 c-1.831,0-3.411,1.261-3.858,3.005C26.095,23.002,26.048,23,26,23c-2.757,0-5,2.243-5,5s2.243,5,5,5h14.875 c0.276,0,0.5-0.224,0.5-0.5s-0.224-0.5-0.5-0.5H26c-2.206,0-4-1.794-4-4s1.794-4,4-4c0.117,0,0.23,0.017,0.343,0.032l0.141,0.019 c0.021,0.003,0.041,0.004,0.062,0.004c0.246,0,0.462-0.185,0.495-0.437C27.232,22.125,28.504,21,30,21 c0.885,0,1.723,0.401,2.301,1.1c0.098,0.118,0.241,0.182,0.386,0.182c0.078,0,0.156-0.018,0.228-0.056 c0.209-0.107,0.314-0.346,0.254-0.573C33.054,21.218,33,20.852,33,20.5c0-2.481,2.019-4.5,4.5-4.5 c2.381,0,4.347,1.872,4.474,4.263c0.011,0.208,0.15,0.387,0.349,0.45c0.05,0.016,0.101,0.024,0.152,0.024 c0.15,0,0.296-0.069,0.392-0.192C43.638,19.563,44.779,19,46,19c2.206,0,4,1.794,4,4c0,0.117-0.017,0.23-0.032,0.343l-0.019,0.141 c-0.016,0.134,0.022,0.268,0.106,0.373c0.084,0.105,0.207,0.172,0.34,0.185C52.451,24.247,54,25.949,54,28c0,2.206-1.794,4-4,4 h-6.125c-0.276,0-0.5,0.224-0.5,0.5s0.224,0.5,0.5,0.5H50c2.757,0,5-2.243,5-5c0-2.397-1.689-4.413-4.003-4.877 C50.999,23.082,51,23.041,51,23c0-2.757-2.243-5-5-5c-1.176,0-2.293,0.416-3.183,1.164C42.219,16.76,40.055,15,37.5,15L37.5,15z"/><path fill="#472b29" d="M36,22c-1.403,0-2.609,0.999-2.913,2.341C32.72,24.119,32.301,24,31.875,24 c-1.202,0-2.198,0.897-2.353,2.068C29.319,26.022,29.126,26,28.937,26c-1.529,0-2.811,1.2-2.918,2.732 C26.01,28.87,26.114,28.99,26.251,29c0.006,0,0.012,0,0.018,0c0.13,0,0.24-0.101,0.249-0.232c0.089-1.271,1.151-2.268,2.419-2.268 c0.229,0,0.47,0.042,0.738,0.127c0.022,0.007,0.045,0.01,0.067,0.01c0.055,0,0.11-0.02,0.156-0.054 C29.962,26.537,30,26.455,30,26.375c0-1.034,0.841-1.875,1.875-1.875c0.447,0,0.885,0.168,1.231,0.473 c0.047,0.041,0.106,0.063,0.165,0.063c0.032,0,0.063-0.006,0.093-0.019c0.088-0.035,0.148-0.117,0.155-0.212 C33.623,23.512,34.712,22.5,36,22.5c0.208,0,0.425,0.034,0.682,0.107c0.023,0.007,0.047,0.01,0.07,0.01 c0.109,0,0.207-0.073,0.239-0.182c0.038-0.133-0.039-0.271-0.172-0.309C36.517,22.04,36.256,22,36,22L36,22z"/><path fill="#472b29" d="M49.883,23.5c-1.326,0-2.508,0.897-2.874,2.182c-0.038,0.133,0.039,0.271,0.172,0.309 C47.205,25.997,47.228,26,47.25,26c0.109,0,0.209-0.072,0.24-0.182C47.795,24.748,48.779,24,49.883,24 c0.117,0,0.23,0.014,0.342,0.029c0.012,0.002,0.023,0.003,0.035,0.003c0.121,0,0.229-0.092,0.246-0.217 c0.019-0.137-0.077-0.263-0.214-0.281C50.158,23.516,50.022,23.5,49.883,23.5L49.883,23.5z"/></g></svg>